<?xml version="1.0" standalone="no"?>
<!DOCTYPE svg PUBLIC "-//W3C//DTD SVG 20010904//EN"
 "http://www.w3.org/TR/2001/REC-SVG-20010904/DTD/svg10.dtd">
<svg version="1.0" xmlns="http://www.w3.org/2000/svg"
 width="700.000000pt" height="700.000000pt" viewBox="0 0 700.000000 700.000000"
 preserveAspectRatio="xMidYMid meet">
<metadata>
Created by potrace 1.11, written by Peter Selinger 2001-2013
</metadata>
<g transform="translate(0.000000,700.000000) scale(0.100000,-0.100000)"
fill="#000000" stroke="none">
<path d="M543 6884 l-113 -114 0 -3271 0 -3270 114 -115 114 -114 2105 0 2106
0 855 856 856 855 0 2500 0 2500 -25 23 c-15 14 -25 34 -25 50 0 20 -22 49
-94 121 l-94 95 -2844 -1 -2843 0 -112 -115z m5516 -350 c23 -5 33 -14 39 -33
4 -14 7 -978 7 -2142 0 -1762 -2 -2119 -14 -2132 -12 -15 -79 -17 -695 -19
l-682 -3 -28 -22 c-17 -14 -43 -23 -62 -23 -25 0 -38 -7 -50 -25 -9 -14 -22
-25 -29 -25 -20 0 -110 -108 -144 -174 l-31 -58 0 -687 c0 -577 -2 -690 -14
-707 -14 -18 -28 -19 -263 -19 l-248 0 -3 833 -2 834 -64 64 -64 64 -1409 2
-1408 3 0 2105 c0 1158 3 2117 8 2132 4 16 16 28 30 31 36 7 5091 8 5126 1z
m-4572 -4836 c72 -71 93 -99 93 -120 0 -37 120 -158 157 -158 36 0 103 69 103
105 0 22 18 45 80 106 63 61 80 83 80 106 0 16 5 34 12 41 17 17 379 17 396 0
17 -17 17 -1069 0 -1086 -15 -15 -315 -17 -338 -2 -13 8 -16 55 -20 287 -4
206 -8 278 -17 278 -7 0 -53 -40 -102 -88 -74 -73 -91 -94 -91 -119 0 -40 -61
-98 -102 -98 -41 0 -158 115 -158 155 0 20 -17 44 -66 92 -96 94 -94 98 -94
-226 0 -194 -3 -270 -12 -279 -8 -8 -60 -12 -169 -12 -130 0 -160 3 -173 16
-14 14 -16 77 -16 543 0 396 3 530 12 539 8 8 61 12 172 12 l161 0 92 -92z
m1711 80 c9 -9 12 -84 12 -278 0 -194 3 -269 12 -278 8 -8 51 -12 125 -12 140
0 148 -8 74 -79 -37 -35 -51 -57 -51 -76 0 -21 -19 -47 -80 -107 -60 -60 -80
-87 -80 -107 0 -19 -15 -42 -50 -76 -30 -31 -50 -59 -50 -73 0 -40 -18 -62
-51 -62 -43 0 -169 122 -169 164 0 21 -13 40 -50 75 -37 35 -50 54 -50 75 0
23 -17 46 -80 107 -63 62 -80 85 -80 107 0 44 16 52 105 52 50 0 86 5 93 12 9
9 12 84 12 278 0 194 3 269 12 278 8 8 61 12 173 12 112 0 165 -4 173 -12z
m2674 -53 c15 -9 -57 -85 -494 -522 -281 -281 -516 -509 -523 -507 -22 9 -25
70 -25 551 0 439 1 473 18 483 23 14 1000 9 1024 -5z"/>
<path d="M1458 5691 c-92 -24 -130 -65 -153 -167 -12 -54 -13 -78 -6 -93 6
-11 11 -35 11 -53 0 -48 63 -108 133 -127 80 -23 4030 -28 4083 -6 20 8 46 15
58 15 12 0 40 18 64 43 32 32 42 51 42 75 0 18 5 41 12 51 9 15 8 35 -7 96
-15 64 -25 85 -55 115 -74 74 61 70 -2149 69 -1827 -1 -1971 -2 -2033 -18z"/>
<path d="M1476 4385 c-11 -8 -33 -15 -49 -15 -21 0 -40 -11 -67 -39 -32 -33
-40 -51 -54 -120 -12 -58 -14 -87 -6 -100 5 -11 10 -32 10 -46 0 -16 16 -45
41 -75 34 -41 48 -49 87 -55 63 -10 4064 -10 4122 0 33 5 56 18 86 48 40 38
42 44 48 116 10 117 -5 181 -52 230 -22 23 -49 41 -61 41 -12 0 -38 7 -58 15
-31 13 -279 15 -2032 15 -1739 -1 -1998 -3 -2015 -15z"/>
<path d="M1480 3070 c-8 -5 -31 -10 -50 -10 -28 0 -43 -9 -76 -43 -38 -39 -41
-48 -48 -114 -11 -110 6 -185 53 -234 28 -28 47 -39 68 -39 16 0 38 -7 49 -15
17 -12 276 -14 2020 -15 1757 0 2005 2 2030 15 16 8 40 15 54 15 17 0 39 14
63 40 31 32 40 50 48 102 6 34 7 92 3 128 -6 56 -12 71 -46 111 -33 40 -47 48
-86 54 -74 12 -4064 16 -4082 5z"/>
</g>
</svg>
